# xmcd
#
# Track frame offsets: 
#        182
#        17367
#        48292
#        78520
#        94285
#        111590
#        122782
#        146890
#        150192
#        164285
#        186612
#        199855
#        206940
#        220110
#        228260
#        241730
#        251650
#        270807
#        286410
#
# Disc length: 4081 seconds
#
# Revision: 3
# Processed by: cddbd v1.5.2PL0 Copyright (c) Steve Scherf et al.
# Submitted via: ExactAudioCopyFreeDBPlugin 1.0
#
DISCID=0f0fef13
DTITLE=Son House - Travelin' Man:  The Complete Library of Congress Se
DTITLE=ssions, 1941-1942
DYEAR=1990
DGENRE=Blues
TTITLE0=Levee Camp Blues
TTITLE1=Government Fleet Blues
TTITLE2=Walking Blues
TTITLE3=Shetland Pony blues
TTITLE4=Fo' Clock Blues
TTITLE5=Camp Hollers
TTITLE6=Delta Blues
TTITLE7=Special Rider Blues
TTITLE8=Special Rider Blues
TTITLE9=Low-Down Dirty Blues
TTITLE10=Depot Blues
TTITLE11=The Key of Minor
TTITLE12=American Defense
TTITLE13=Am I Right or Wrong
TTITLE14=Walking Blues
TTITLE15=County Farm Blues
TTITLE16=The Pony Blues
TTITLE17=The Jinx Blues - Part 1
TTITLE18=The Jinx Blues - Part 2
EXTD=
EXTT0=
EXTT1=
EXTT2=
EXTT3=
EXTT4=
EXTT5=
EXTT6=
EXTT7=
EXTT8=
EXTT9=
EXTT10=
EXTT11=
EXTT12=
EXTT13=
EXTT14=
EXTT15=
EXTT16=
EXTT17=
EXTT18=
PLAYORDER=
